<svg width="29" height="28" viewBox="0 0 29 28" fill="none" xmlns="http://www.w3.org/2000/svg">
<circle cx="9.51087" cy="9.51087" r="9.51087" transform="matrix(-1 0 0 1 24.431 4.41309)" fill="white"/>
<path d="M14.9201 0C18.6331 0 22.1941 1.475 24.8196 4.1005C27.4451 6.72601 28.9201 10.287 28.9201 14C28.9201 17.713 27.4451 21.274 24.8196 23.8995C22.1941 26.525 18.6331 28 14.9201 28C11.2071 28 7.64612 26.525 5.02061 23.8995C2.3951 21.274 0.920105 17.713 0.920105 14C0.920105 10.287 2.3951 6.72601 5.02061 4.1005C7.64612 1.475 11.2071 0 14.9201 0ZM17.6025 21L19.2377 19.3676L13.8701 14L19.2377 8.6324L17.6025 7L10.6025 14L17.6025 21Z" fill="#5D5DFF"/>
</svg>
