<svg width="148" height="24" viewBox="0 0 148 24" fill="none" xmlns="http://www.w3.org/2000/svg">
<mask id="mask0_6_803" style="mask-type:luminance" maskUnits="userSpaceOnUse" x="0" y="0" width="148" height="24">
<path d="M147.586 0.41748H0.585693V23.2039H147.586V0.41748Z" fill="white"/>
</mask>
<g mask="url(#mask0_6_803)">
<path d="M36.1831 18.9022C36.3424 18.9513 36.4651 19.1357 36.4651 19.3078V22.4541C36.4651 22.6261 36.3301 22.7613 36.1586 22.7613H27.4524C27.2806 22.7613 27.1457 22.6261 27.1457 22.4541V19.3078C27.1457 19.1357 27.2683 18.9636 27.4278 18.9022L28.8869 18.3983C29.0464 18.3491 29.1691 18.1647 29.1691 17.9927V6.04646C29.1691 5.87442 29.0464 5.70235 28.8869 5.64089L27.4278 5.13698C27.2683 5.08782 27.1457 4.90347 27.1457 4.73141V1.15492C27.1457 0.982851 27.2806 0.847656 27.4524 0.847656H36.1586C36.3301 0.847656 36.4651 0.982851 36.4651 1.15492V4.73141C36.4651 4.90347 36.3424 5.07554 36.1831 5.13698L34.7238 5.64089C34.5645 5.69005 34.4418 5.87442 34.4418 6.04646V17.9927C34.4418 18.1647 34.5645 18.3368 34.7238 18.3983L36.1831 18.9022Z" fill="white" fill-opacity="0.5"/>
<path d="M64.0797 18.9021C64.2392 18.9513 64.3616 19.1357 64.3616 19.3077V22.4541C64.3616 22.6261 64.2269 22.7613 64.0551 22.7613H55.2263C55.0548 22.7613 54.9198 22.6261 54.9198 22.4541V19.3077C54.9198 19.1357 55.0548 18.9636 55.2017 18.9144L56.7835 18.3982C56.943 18.3491 57.0657 18.1647 57.0657 18.005V16.1245C57.0657 15.9525 57.0657 15.6821 57.0657 15.5223C57.0657 15.5223 57.2741 9.41401 57.2741 9.37714C57.2005 9.37714 57.0903 9.50004 57.0166 9.64752C57.0166 9.64752 56.1828 11.319 54.7726 13.8877L53.019 17.0955C52.9334 17.243 52.7371 17.3659 52.5655 17.3659H50.2724C50.1006 17.3659 49.9045 17.243 49.8186 17.1078L48.1019 14.1827C48.016 14.0352 47.8813 13.8017 47.7954 13.6542C47.7954 13.6542 45.2203 9.00843 45.1958 8.97157C45.1221 8.97157 45.0731 9.10674 45.0731 9.27881C45.0731 9.27881 45.1344 12.8553 45.1344 15.8296V18.005C45.1344 18.177 45.2571 18.3614 45.4166 18.4105L46.7287 18.9021C46.888 18.9636 47.0106 19.148 47.0106 19.3077V22.4541C47.0106 22.6261 46.8757 22.7613 46.7042 22.7613H38.7827C38.611 22.7613 38.476 22.6261 38.476 22.4541V19.3077C38.476 19.1357 38.5987 18.9636 38.7582 18.9021L40.2173 18.3982C40.3768 18.3491 40.4993 18.1647 40.4993 17.9927V6.04644C40.4993 5.8744 40.3768 5.70233 40.2173 5.64087L38.7582 5.13696C38.5987 5.0878 38.476 4.90346 38.476 4.73139V1.1549C38.476 0.982834 38.611 0.847639 38.7827 0.847639H45.5513C45.7231 0.847639 45.9192 0.970544 46.005 1.10574L51.3882 10.4095C51.474 10.557 51.5599 10.6676 51.5845 10.6676C51.609 10.6676 51.6949 10.5447 51.7805 10.3972L56.9798 1.09345C57.0657 0.945963 57.2618 0.823059 57.4336 0.823059H64.0429C64.2146 0.823059 64.3494 0.958254 64.3494 1.13032V4.70682C64.3494 4.87886 64.2269 5.05093 64.0674 5.11239L62.6083 5.6163C62.4488 5.66546 62.3261 5.8498 62.3261 6.02187V17.9681C62.3261 18.1402 62.4488 18.3122 62.6083 18.3737L64.0674 18.8776L64.0797 18.9021Z" fill="white" fill-opacity="0.5"/>
<path d="M76.624 0.859946C81.9948 0.859946 85.2443 3.64986 85.2443 8.18498C85.2443 12.7201 81.9948 15.3503 76.624 15.3503H74.0243C73.8528 15.3503 73.7178 15.4855 73.7178 15.6575V18.005C73.7178 18.177 73.8405 18.3491 73.9998 18.4106L75.4591 18.9145C75.6184 18.9636 75.7411 19.148 75.7411 19.32V22.4664C75.7411 22.6384 75.6061 22.7736 75.4346 22.7736H66.7284C66.5567 22.7736 66.4217 22.6384 66.4217 22.4664V19.32C66.4217 19.148 66.5444 18.9759 66.7039 18.9145L68.163 18.4106C68.3225 18.3614 68.4452 18.177 68.4452 18.005V6.04648C68.4452 5.87442 68.3225 5.70235 68.163 5.64089L66.7039 5.13698C66.5444 5.08782 66.4217 4.90347 66.4217 4.73141V1.15492C66.4217 0.982851 66.5567 0.847656 66.7284 0.847656H76.6117L76.624 0.859946ZM76.9305 11.0241C78.9905 11.0241 79.9961 9.89336 79.9961 8.17271C79.9961 6.45206 78.9905 5.35821 76.9305 5.35821H74.0121C73.8405 5.35821 73.7056 5.49341 73.7056 5.66548V10.7291C73.7056 10.9012 73.8405 11.0363 74.0121 11.0363H76.9305V11.0241Z" fill="white" fill-opacity="0.5"/>
<path d="M126.066 16.7882C124.226 20.672 120.511 23.2039 115.826 23.2039C109.303 23.2039 104.361 18.6072 104.361 11.7492C104.361 4.89116 109.045 0.41748 115.483 0.41748C118.07 0.41748 120.069 1.22864 121.234 2.42081L121.43 1.1549C121.443 0.982836 121.59 0.847642 121.761 0.847642H125.44C125.612 0.847642 125.747 0.982836 125.747 1.1549V9.53691C125.747 9.70898 125.612 9.84418 125.44 9.84418H121.418C121.246 9.84418 121.111 9.74585 121.111 9.62295C121.111 9.50004 121.173 8.70117 120.646 7.82856C119.996 6.74701 118.463 5.3705 115.802 5.3705C111.988 5.3705 109.646 8.0252 109.646 11.8229C109.646 15.6206 112.172 18.2385 115.741 18.2385C119.517 18.2385 120.78 15.6452 120.78 15.6452C120.891 15.5223 121.063 15.4609 121.222 15.4977L126.078 16.8005L126.066 16.7882Z" fill="white" fill-opacity="0.5"/>
<path d="M143.649 8.08667C143.478 8.08667 143.306 7.95148 143.269 7.79171L142.718 5.75151C142.669 5.59172 142.497 5.45654 142.338 5.45654H140.326C140.155 5.45654 140.02 5.59172 140.02 5.76379V18.005C140.02 18.177 140.155 18.3491 140.302 18.4106L141.822 18.9268C141.982 18.9759 142.104 19.1603 142.104 19.3323V22.4787C142.104 22.6507 141.97 22.7859 141.798 22.7859H132.969C132.797 22.7859 132.663 22.6507 132.663 22.4787V19.3323C132.663 19.1603 132.797 18.9882 132.945 18.9268L134.465 18.4106C134.624 18.3614 134.747 18.177 134.747 18.005V5.76379C134.747 5.59172 134.612 5.45654 134.441 5.45654H132.393C132.221 5.45654 132.049 5.59172 132.013 5.75151L131.461 7.79171C131.412 7.95148 131.24 8.08667 131.081 8.08667H127.488C127.316 8.08667 127.181 7.95148 127.181 7.77941V1.15492C127.181 0.982851 127.316 0.847656 127.488 0.847656H147.242C147.414 0.847656 147.549 0.982851 147.549 1.15492V7.77941C147.549 7.95148 147.414 8.08667 147.242 8.08667H143.613H143.649Z" fill="white" fill-opacity="0.5"/>
<path d="M104.435 18.6072C104.275 18.5703 104.091 18.3982 104.03 18.2508L97.5803 1.1426C97.5189 0.982829 97.3349 0.859924 97.1756 0.859924H87.231C87.0592 0.859924 86.9242 0.995119 86.9242 1.16718V4.51015C86.9242 4.68222 87.0469 4.85429 87.2064 4.91575L88.5428 5.39506C88.7023 5.45652 88.7759 5.62857 88.7269 5.78836L88.0525 7.57045C87.9912 7.73022 87.9053 7.98832 87.8439 8.13582L83.9077 18.2631C83.8465 18.4228 83.6625 18.5826 83.503 18.6195L82.2768 18.939C82.1175 18.9759 81.9826 19.148 81.9826 19.32V22.4663C81.9826 22.6384 82.1175 22.7736 82.2891 22.7736H90.37C90.5417 22.7736 90.6765 22.6384 90.6765 22.4663V19.32C90.6765 19.148 90.5417 18.9882 90.3822 18.9636L89.1683 18.7424C89.0088 18.7178 88.9229 18.558 88.972 18.3982L93.5335 6.03416C93.5949 5.87439 93.6685 5.75149 93.7053 5.75149C93.7421 5.75149 93.8157 5.87439 93.8771 6.03416L95.6917 10.9749C95.7531 11.1347 95.8512 11.3805 95.9003 11.5402C95.9494 11.7 95.8758 11.8229 95.704 11.8229H93.5704C93.3988 11.8229 93.2148 11.9458 93.1657 12.1056L91.8293 15.6944C91.768 15.8541 91.8536 15.977 92.0254 15.977H97.237C97.4085 15.977 97.5925 16.0999 97.6539 16.2597L98.5366 18.4351C98.5979 18.5949 98.5122 18.7424 98.3527 18.767L97.1756 18.9636C97.0161 18.9882 96.8812 19.148 96.8812 19.32V22.4663C96.8812 22.6384 97.0161 22.7736 97.1879 22.7736H105.673C105.845 22.7736 105.98 22.6384 105.98 22.4663V19.32C105.98 19.148 105.845 18.9882 105.685 18.939L104.447 18.6195L104.435 18.6072Z" fill="white" fill-opacity="0.5"/>
<path d="M22.0692 4.31352C22.3757 4.00626 22.388 3.77275 22.388 3.50235V1.36384C22.388 1.09345 22.1673 0.872223 21.8975 0.872223H19.7761C19.5064 0.872223 19.2734 0.872223 18.9546 1.19177C18.6357 1.51132 18.4028 1.51132 18.133 1.51132H4.82843C4.55867 1.51132 4.32567 1.51132 4.00686 1.19177C3.68805 0.872223 3.45506 0.872223 3.1853 0.872223H1.07618C0.806414 0.872223 0.585693 1.09345 0.585693 1.36384V3.49008C0.585693 3.76045 0.585693 3.99398 0.904513 4.30122C1.23559 4.63306 1.22333 4.842 1.22333 5.1124V9.61065C1.22333 9.88105 1.0394 9.99165 0.929037 10.1023C0.818676 10.2129 0.634743 10.3235 0.634743 10.5939V13.1871C0.634743 13.4575 0.830938 13.5559 0.941299 13.6788C1.08845 13.8263 1.24785 13.9 1.24785 14.1704V18.4474C1.24785 18.7178 1.21107 19.0128 0.929037 19.2954C0.745103 19.4798 0.610218 19.7133 0.610218 20.1435V22.2083C0.610218 22.4786 0.830938 22.6999 1.10071 22.6999H3.23435C3.50411 22.6999 3.71257 22.7122 4.05592 22.3803C4.37473 22.0608 4.60772 22.0608 4.87748 22.0608H18.1452C18.415 22.0608 18.648 22.0608 18.9668 22.3803C19.2979 22.7122 19.5186 22.6999 19.7884 22.6999H21.922C22.1918 22.6999 22.4125 22.4786 22.4125 22.2083V20.1435C22.4125 19.7133 22.2776 19.4798 22.0937 19.2954C21.8117 19.0128 21.7749 18.7178 21.7749 18.4474V14.1704C21.7749 13.9 21.9343 13.8263 22.0814 13.6788C22.2041 13.5559 22.388 13.4575 22.388 13.1871V10.5939C22.388 10.3235 22.2041 10.2129 22.0937 10.1023C21.9833 9.99165 21.7994 9.88105 21.7994 9.61065V5.1124C21.7994 4.842 21.7871 4.63306 22.1182 4.30122L22.0692 4.31352ZM4.47283 3.30571C4.47283 3.30571 4.50962 3.23198 4.5464 3.26884L7.99211 6.72242C7.99211 6.72242 8.04114 6.83305 7.99211 6.88221L4.53413 10.5079C4.53413 10.5079 4.46056 10.5324 4.46056 10.4833V3.30571H4.47283ZM11.0699 17.8943L10.1503 18.7915C10.1503 18.7915 10.0767 18.9144 10.0889 18.9759L10.3464 19.9346C10.3464 19.9346 10.3219 20.0452 10.2606 20.0452H8.53165C8.53165 20.0452 8.40902 19.996 8.38449 19.9468L7.64876 17.7837C7.64876 17.7837 7.57519 17.6485 7.52614 17.6117L3.08719 13.9983C3.08719 13.9983 3.03814 13.9 3.08719 13.8508L8.38449 8.36933C8.38449 8.36933 8.50711 8.32017 8.55616 8.34476L10.7143 9.68441C10.7143 9.68441 10.8124 9.79501 10.8124 9.85645L11.1435 17.7223C11.1435 17.7223 11.119 17.8698 11.0699 17.9066V17.8943ZM14.9203 6.72242L18.366 3.26884C18.366 3.26884 18.4396 3.24425 18.4396 3.30571V10.4833C18.4396 10.4833 18.415 10.557 18.3782 10.5079L14.9203 6.88221C14.9203 6.88221 14.8835 6.77158 14.9203 6.72242ZM19.8129 13.986L15.374 17.5994C15.374 17.5994 15.2759 17.71 15.2514 17.7714L14.5156 19.9346C14.5156 19.9346 14.4298 20.0329 14.3685 20.0329H12.6395C12.6395 20.0329 12.5414 19.9837 12.5537 19.9223L12.8112 18.9636C12.8112 18.9636 12.7989 18.8284 12.7499 18.7792L11.8302 17.8821C11.8302 17.8821 11.7566 17.7592 11.7566 17.6977L12.0877 9.83188C12.0877 9.83188 12.1367 9.69668 12.1858 9.65981L14.344 8.32017C14.344 8.32017 14.4666 8.2956 14.5156 8.34476L19.8129 13.8263C19.8129 13.8263 19.8497 13.9369 19.8129 13.9737V13.986Z" fill="white" fill-opacity="0.5"/>
<path d="M9.46357 11.1715C9.40227 11.0732 9.24287 10.9872 9.13249 10.9872H6.90078C6.77815 10.9872 6.71683 11.0855 6.74135 11.1961C6.74135 11.1961 6.85172 11.6386 7.44031 12.1425C8.21282 12.8061 9.13249 13.0274 9.13249 13.0274C9.24287 13.0642 9.40228 13.0274 9.48811 12.9413L10.0031 12.4006C10.0889 12.3145 10.1012 12.1548 10.0399 12.0564L9.46357 11.1592V11.1715Z" fill="white" fill-opacity="0.5"/>
<path d="M16.0239 10.9872H13.7922C13.6695 10.9872 13.5224 11.0732 13.4611 11.1715L12.8848 12.0687C12.8234 12.167 12.8357 12.3268 12.9215 12.4128L13.4365 12.9536C13.5224 13.0396 13.6818 13.0765 13.7922 13.0396C13.7922 13.0396 14.7118 12.8061 15.4843 12.1548C16.0607 11.6631 16.1833 11.2084 16.1833 11.2084C16.2201 11.0978 16.1465 10.9994 16.0239 10.9994V10.9872Z" fill="white" fill-opacity="0.5"/>
</g>
</svg>
