<svg width="116" height="48" viewBox="0 0 116 48" fill="none" xmlns="http://www.w3.org/2000/svg">
<g opacity="0.5" clip-path="url(#clip0_6_853)">
<mask id="mask0_6_853" style="mask-type:luminance" maskUnits="userSpaceOnUse" x="0" y="1" width="115" height="47">
<path d="M0.0809631 47.3975V1.04749H114.861V47.3975H0.0809631Z" fill="white"/>
</mask>
<g mask="url(#mask0_6_853)">
<path d="M5.08096 3.81749C6.28096 3.81749 7.18096 4.71749 7.18096 5.91749C7.18096 7.21749 6.28096 8.11749 5.08096 8.11749C3.78096 8.11749 2.88096 7.21749 2.88096 5.91749C2.88096 4.71749 3.78096 3.81749 5.08096 3.81749ZM2.18096 18.5175H0.280963C0.180963 18.5175 0.0809631 18.4175 0.0809631 18.3175C0.0809631 18.2175 0.180963 18.1175 0.280963 18.1175H7.68096C7.78096 18.1175 7.88096 18.2175 7.88096 18.3175C7.88096 18.4175 7.78096 18.5175 7.68096 18.5175H6.78096V44.2175C6.78096 45.2175 7.38096 46.5175 8.78096 46.5175C9.88096 46.5175 10.581 45.7175 10.581 44.5175C10.581 44.3175 10.981 44.3175 10.981 44.5175C10.981 46.5175 9.48096 47.3175 7.38096 47.3175C4.88096 47.3175 3.48096 45.5175 3.48096 42.6175V20.1175C3.48096 19.2175 2.98096 18.6175 2.18096 18.5175Z" fill="white"/>
</g>
<mask id="mask1_6_853" style="mask-type:luminance" maskUnits="userSpaceOnUse" x="0" y="1" width="115" height="47">
<path d="M0.0809631 47.3975V1.04749H114.861V47.3975H0.0809631Z" fill="white"/>
</mask>
<g mask="url(#mask1_6_853)">
<path d="M12.581 46.7175H15.081C15.581 46.7175 15.781 46.5175 15.781 46.0175V20.0175C15.781 19.1175 15.281 18.5175 14.481 18.5175H12.581C12.481 18.5175 12.381 18.4175 12.381 18.3175C12.381 18.2175 12.481 18.1175 12.581 18.1175H19.981C20.081 18.1175 20.181 18.2175 20.181 18.3175C20.181 18.4175 20.081 18.5175 19.981 18.5175H19.081V25.0175C20.981 20.8175 24.681 17.4175 29.381 17.4175C35.781 17.4175 38.981 20.9175 38.981 24.6175V44.2175C38.981 45.2175 39.581 46.5175 40.981 46.5175C42.081 46.5175 42.781 45.7175 42.781 44.5175C42.781 44.3175 43.181 44.3175 43.181 44.5175C43.181 46.5175 41.681 47.3175 39.581 47.3175C37.081 47.3175 35.681 45.5175 35.681 42.6175V25.0175C35.681 21.1175 33.281 17.3175 28.181 17.9175C24.181 18.3175 20.881 21.6175 19.081 25.7175V46.0175C19.081 46.5175 19.281 46.7175 19.681 46.7175H22.081C22.081 46.7175 22.281 46.7175 22.281 46.9175C22.281 47.0175 22.081 47.1175 22.081 47.1175H12.581C12.581 47.1175 12.381 47.0175 12.381 46.9175C12.381 46.7175 12.581 46.7175 12.581 46.7175Z" fill="white"/>
</g>
<mask id="mask2_6_853" style="mask-type:luminance" maskUnits="userSpaceOnUse" x="0" y="1" width="115" height="47">
<path d="M0.0809631 47.3975V1.04749H114.861V47.3975H0.0809631Z" fill="white"/>
</mask>
<g mask="url(#mask2_6_853)">
<path fill-rule="evenodd" clip-rule="evenodd" d="M52.881 47.4175C47.781 47.4175 45.181 45.0175 45.181 40.7175C45.181 34.0175 52.881 33.6175 60.081 31.1175C64.781 29.6175 65.181 27.1175 65.181 23.9175C65.181 20.6175 63.581 17.7175 58.581 17.7175C52.681 17.7175 50.081 22.3175 51.481 26.1175C52.581 29.0175 48.081 30.4175 47.781 26.2175C47.481 21.4175 51.781 17.3175 58.581 17.3175C65.581 17.3175 68.481 20.6175 68.481 24.6175V44.2175C68.481 45.2175 68.981 46.5175 70.381 46.5175C71.581 46.5175 72.281 45.7175 72.281 44.5175C72.281 44.3175 72.681 44.3175 72.681 44.5175C72.681 46.5175 71.181 47.3175 69.081 47.3175C66.581 47.3175 65.181 45.5175 65.181 42.6175V32.7175C63.981 41.0175 59.481 47.4175 52.881 47.4175ZM65.181 30.4175V27.4175C64.581 29.3175 63.481 30.2175 60.381 31.5175C55.881 33.2175 48.881 33.8175 48.881 40.5175V41.1175C48.881 44.4175 50.481 46.6175 53.381 46.6175C60.581 46.6175 64.481 38.1175 65.181 30.4175Z" fill="white"/>
</g>
<mask id="mask3_6_853" style="mask-type:luminance" maskUnits="userSpaceOnUse" x="0" y="1" width="115" height="47">
<path d="M0.0809631 47.3975V1.04749H114.861V47.3975H0.0809631Z" fill="white"/>
</mask>
<g mask="url(#mask3_6_853)">
<path d="M75.781 1.41749H73.081C73.081 1.41749 72.881 1.31749 72.881 1.21749C72.881 1.11749 73.081 1.01749 73.081 1.01749H81.281C81.281 1.01749 81.481 1.11749 81.481 1.21749C81.481 1.31749 81.281 1.41749 81.281 1.41749H80.281V43.9175C80.281 45.1175 80.881 46.5175 82.581 46.5175C83.681 46.5175 84.781 45.8175 84.781 44.5175C84.781 44.3175 85.081 44.3175 85.081 44.5175C85.081 46.4175 83.781 47.3175 81.581 47.3175C78.781 47.3175 76.981 45.6175 76.981 42.6175V3.11749C76.981 2.21749 76.581 1.41749 75.781 1.41749Z" fill="white"/>
</g>
<mask id="mask4_6_853" style="mask-type:luminance" maskUnits="userSpaceOnUse" x="0" y="1" width="115" height="47">
<path d="M0.0809631 47.3975V1.04749H114.861V47.3975H0.0809631Z" fill="white"/>
</mask>
<g mask="url(#mask4_6_853)">
<path fill-rule="evenodd" clip-rule="evenodd" d="M95.081 47.4175C89.981 47.4175 87.381 45.0175 87.381 40.7175C87.381 34.0175 95.081 33.6175 102.281 31.1175C106.981 29.6175 107.381 27.1175 107.381 23.9175C107.381 20.6175 105.781 17.7175 100.781 17.7175C94.881 17.7175 92.281 22.3175 93.681 26.1175C94.781 29.0175 90.281 30.4175 89.981 26.2175C89.681 21.4175 93.981 17.3175 100.781 17.3175C107.781 17.3175 110.681 20.6175 110.681 24.6175V44.2175C110.681 45.2175 111.181 46.5175 112.581 46.5175C113.781 46.5175 114.481 45.7175 114.481 44.5175C114.481 44.3175 114.881 44.3175 114.881 44.5175C114.881 46.5175 113.381 47.3175 111.281 47.3175C108.781 47.3175 107.381 45.5175 107.381 42.6175V32.7175C106.181 41.0175 101.681 47.4175 95.081 47.4175ZM107.381 30.4175V27.4175C106.881 29.3175 105.681 30.2175 102.581 31.5175C98.081 33.2175 91.081 33.8175 91.081 40.5175V41.1175C91.081 44.4175 92.681 46.6175 95.681 46.6175C102.781 46.6175 106.681 38.1175 107.381 30.4175Z" fill="white"/>
</g>
</g>
<defs>
<clipPath id="clip0_6_853">
<rect width="115" height="47" fill="white" transform="translate(0.0809631 0.41748)"/>
</clipPath>
</defs>
</svg>
