<svg width="144" height="47" viewBox="0 0 144 47" fill="none" xmlns="http://www.w3.org/2000/svg">
<path d="M30.6865 2.18612C29.7828 3.04516 29.3157 3.54626 29.3461 3.64853C29.3766 3.74057 29.5187 4.57915 29.6711 5.52C29.8234 6.47108 29.9757 7.2381 30.0061 7.2381C30.0366 7.22785 30.6763 6.64495 31.4176 5.92907L32.7782 4.63029L32.4533 2.78949C32.2807 1.77705 32.1182 0.938465 32.108 0.918012C32.0877 0.897558 31.448 1.47025 30.6865 2.18612Z" fill="white"/>
<path d="M27.2645 5.59159L26.3913 6.40974L26.7974 8.86413L27.2645 8.4755C27.5184 8.25053 27.9347 7.8619 28.1784 7.60624L28.6353 7.13582L28.4526 5.95977C28.351 5.31548 28.2393 4.78368 28.1987 4.78368C28.1581 4.78368 27.7418 5.15186 27.2645 5.59159Z" fill="white"/>
<path d="M8.48965 5.80635C8.48965 5.93932 9.3121 9.43683 9.35272 9.47772C9.41366 9.52886 12.8864 10.8276 12.9067 10.797C12.9371 10.7458 12.0842 7.14603 12.0233 7.08468C11.9116 6.9722 8.48965 5.73476 8.48965 5.80635Z" fill="white"/>
<path d="M24.2081 7.49375C24.1777 9.80497 24.2285 13.2207 24.33 15.3171C24.5026 18.6101 24.8682 22.8951 24.99 22.8542C25.1525 22.803 28.5338 19.1726 30.26 17.1988C32.4228 14.7342 34.9512 11.6151 35.8244 10.3265L36.1494 9.84586L35.7533 10.1527C34.1896 11.3185 31.2043 14.0081 28.4018 16.7693C27.3255 17.8329 26.4218 18.6919 26.4116 18.6715C26.3913 18.651 26.2999 17.9761 26.2085 17.1579C25.7617 13.2002 24.6448 6.57336 24.3199 6.01087C24.2691 5.91883 24.2285 6.52222 24.2081 7.49375Z" fill="white"/>
<path d="M32.0268 7.18696L31.1434 8.03577L31.3465 9.24251C31.4582 9.90725 31.5597 10.4595 31.5699 10.4697C31.58 10.4799 31.9963 10.1016 32.4939 9.63111L33.3976 8.7823L33.2148 7.67783C33.1234 7.07448 33.0117 6.52223 32.9711 6.45064C32.9305 6.37905 32.5751 6.6654 32.0268 7.18696Z" fill="white"/>
<path d="M18.2782 7.18696C18.3086 7.35058 18.3797 7.81076 18.4406 8.20963C18.7757 10.4186 19.5474 14.0388 20.4308 17.4545C20.7355 18.651 20.969 19.6532 20.9487 19.6737C20.9284 19.6941 20.4004 19.4794 19.7607 19.2033C16.1763 17.6079 8.84502 14.8774 9.04811 15.2251C9.23091 15.5012 13.6378 18.0579 16.6738 19.6328C19.4459 21.0645 23.9239 23.2121 23.9239 23.0996C23.9239 23.0587 23.538 21.7395 23.0709 20.1646C21.6696 15.5114 20.2785 11.5128 18.9686 8.41415C18.3899 7.03354 18.1665 6.64495 18.2782 7.18696Z" fill="white"/>
<path d="M13.7291 8.38347C13.8104 8.7414 13.9322 9.28341 14.0033 9.59021L14.1251 10.1527L15.2827 10.5924C15.9224 10.8276 16.4504 11.0117 16.4707 11.0015C16.5215 10.9401 15.9427 8.66982 15.8513 8.58802C15.7599 8.50619 13.7799 7.74942 13.6479 7.74942C13.6073 7.74942 13.6479 8.03577 13.7291 8.38347Z" fill="white"/>
<path d="M28.3409 9.30386C27.6098 9.97883 27.0005 10.5822 26.9904 10.6333C26.9497 10.7254 27.4676 13.9468 27.5691 14.2127C27.6199 14.3558 27.9144 14.1206 29.0009 13.0775L30.3615 11.7685L30.067 9.91745C29.9046 8.89481 29.7421 8.05621 29.7116 8.05621C29.6812 8.05621 29.0618 8.61867 28.3409 9.30386Z" fill="white"/>
<path d="M10.1041 12.3105L10.3783 13.507L11.546 13.9365C12.1857 14.182 12.7138 14.366 12.7239 14.3558C12.7544 14.3354 12.1756 11.9321 12.135 11.9014C12.0436 11.8401 10.0331 11.1242 9.94167 11.1242C9.88076 11.1242 9.95184 11.6253 10.1041 12.3105Z" fill="white"/>
<path d="M13.4651 11.5537C13.4753 11.8503 14.2572 15.0308 14.3384 15.1126C14.4603 15.2353 17.7502 16.4523 17.8111 16.3909C17.8517 16.3603 17.0496 12.74 16.9886 12.7093C16.9277 12.6684 13.5667 11.431 13.5159 11.431C13.4855 11.431 13.4651 11.4924 13.4651 11.5537Z" fill="white"/>
<path d="M71.1402 23.6007V34.441H73.9834V19.4691L74.5012 20.0214C74.7858 20.3282 77.6593 23.2735 80.8881 26.5664C84.1172 29.8594 87.3156 33.132 88.0063 33.858C88.7067 34.5739 89.3058 35.1568 89.3465 35.1568C89.3871 35.1568 89.4074 30.2685 89.3975 24.2859L89.3668 13.4252L86.5439 13.3639L86.6049 20.9418C86.6355 25.104 86.6252 28.5095 86.5845 28.5095C86.5439 28.5095 86.0771 28.0595 85.5589 27.5073C85.0411 26.9653 83.2641 25.1143 81.5991 23.3962C79.9438 21.6781 78.3394 20.0214 78.0452 19.7146C75.1816 16.7284 71.2924 12.7605 71.2318 12.7605C71.1808 12.7605 71.1402 17.6181 71.1402 23.6007Z" fill="white"/>
<path d="M103.176 13.282C99.1047 13.8649 95.4694 17.2193 94.4338 21.3304C93.3169 25.7586 95.0533 30.3401 98.8101 32.8763C99.9984 33.6842 101.308 34.216 102.791 34.5023C104.141 34.758 106.416 34.6557 107.644 34.2978C111.3 33.2138 114.133 30.3401 115.107 26.7198C115.392 25.6767 115.493 23.3451 115.31 22.1894C114.976 20.1134 113.879 17.9965 112.305 16.4012C109.858 13.9365 106.527 12.8014 103.176 13.282ZM106.537 16.0944C109.441 16.7079 111.96 19.4589 112.457 22.5781C113.117 26.679 110.65 30.6571 106.812 31.69C105.766 31.9764 103.989 31.9968 102.973 31.7309C100.11 31.0048 97.8355 28.6527 97.1958 25.779C96.9925 24.8688 96.9825 23.0792 97.1754 22.1588C97.5003 20.6248 98.394 19.0294 99.5109 18.0067C101.46 16.2068 103.918 15.5421 106.537 16.0944Z" fill="white"/>
<path d="M58.7017 13.415C55.7672 13.9979 53.9902 15.8182 53.8072 18.4567C53.6856 20.1237 54.1118 21.2895 55.239 22.4246C56.0614 23.253 56.8331 23.6928 58.9959 24.5723C61.8291 25.7279 62.8344 26.4233 63.3522 27.5789C63.6161 28.1925 63.5655 29.5833 63.2506 30.2071C62.5702 31.5161 60.7729 32.3138 58.8639 32.1502C57.5238 32.0377 55.7365 31.4139 54.6702 30.6776C54.4267 30.514 54.1831 30.3503 54.1118 30.3094C53.9292 30.2071 52.741 32.3956 52.8833 32.5695C53.1268 32.8661 55.6958 34.0421 56.6708 34.308C57.5948 34.5637 57.8487 34.5841 59.5647 34.5841C61.3417 34.5841 61.4939 34.5739 62.2556 34.308C63.9513 33.7353 65.2305 32.6615 65.9009 31.2502C66.3274 30.3298 66.4693 29.6651 66.4693 28.5811C66.4693 26.8937 65.9619 25.6358 64.8446 24.5109C64.3065 23.9689 63.941 23.7235 63.007 23.2632C62.3673 22.9462 61.5043 22.5678 61.0877 22.4144C59.8999 22.0054 58.1229 21.085 57.6048 20.635C56.9857 20.0827 56.6808 19.4385 56.6911 18.6408C56.6911 17.3318 57.4728 16.4012 58.9046 15.9716C59.3614 15.8387 59.7576 15.8182 60.6716 15.8591C61.9914 15.9103 63.1083 16.1966 64.4081 16.8L65.1495 17.1477L65.657 16.1352C65.9415 15.5728 66.1648 15.0717 66.1648 15.0103C66.1648 14.7342 63.7684 13.7933 62.3876 13.5275C61.179 13.2923 59.5543 13.2513 58.7017 13.415Z" fill="white"/>
<path d="M117.077 14.1104C119.626 20.9009 125.089 35.2284 125.14 35.2796C125.18 35.3205 126.399 32.549 127.851 29.1231C129.293 25.687 130.511 22.9258 130.552 22.9667C130.582 23.0076 131.679 25.7892 132.979 29.1436C134.288 32.5081 135.375 35.2591 135.405 35.2591C135.456 35.2591 141.823 18.4158 143.356 14.2331L143.63 13.4763H142.117C140.635 13.4763 140.604 13.4763 140.543 13.7013C140.34 14.3763 135.578 28.2641 135.517 28.3357C135.487 28.3766 134.156 25.0529 132.562 20.9418L129.679 13.4763H126.886L126.978 13.7013C127.028 13.8343 127.536 15.1331 128.094 16.5955C128.968 18.8453 129.11 19.2851 129.029 19.5101C128.968 19.6533 128.186 21.719 127.282 24.1121C126.389 26.5051 125.617 28.5197 125.576 28.6015C125.525 28.6936 125.404 28.4789 125.221 27.9879C125.079 27.5687 123.87 24.1427 122.54 20.3793L120.124 13.5275L118.479 13.4968L116.833 13.4763L117.077 14.1104Z" fill="white"/>
<path d="M39.5104 14.8672C37.1547 16.1046 34.1998 17.8738 31.4378 19.6941C29.2953 21.1054 25.5282 23.7235 25.5789 23.7644C25.6399 23.8257 30.3006 24.92 32.4939 25.3904C35.733 26.0756 41.338 26.996 42.1807 26.9755C43.0034 26.9551 36.3626 24.695 31.8237 23.4473C30.8286 23.1712 30.0163 22.9258 30.0264 22.8951C30.0264 22.8644 30.7271 22.3224 31.5699 21.6884C33.4484 20.2873 35.5502 18.6101 37.2866 17.1068C38.5964 15.9819 39.9572 14.7137 39.8656 14.7137C39.8353 14.7137 39.683 14.7853 39.5104 14.8672Z" fill="white"/>
<path d="M39.815 17.3829C39.4798 17.6693 39.0736 18.0067 38.9113 18.1499C38.7487 18.2829 38.6371 18.4158 38.6674 18.4362C38.6877 18.4669 39.2159 18.6408 39.8353 18.8249L40.9522 19.1726L41.8865 18.4056C42.394 17.9863 42.8105 17.6181 42.8105 17.5772C42.8105 17.5261 40.607 16.8307 40.4751 16.8511C40.4444 16.8511 40.1502 17.0966 39.815 17.3829Z" fill="white"/>
<path d="M43.0337 19.1214C42.2317 19.7964 41.592 20.3691 41.6123 20.3896C41.6733 20.4509 45.014 21.4531 45.1459 21.4531C45.2882 21.4531 48.1211 19.101 48.0601 19.0294C48.0298 19.009 47.2681 18.7635 46.3541 18.4771C45.4405 18.201 44.6381 17.9556 44.5875 17.9351C44.5265 17.9147 43.8258 18.4465 43.0337 19.1214Z" fill="white"/>
<path d="M35.7127 20.5941C34.9309 21.2486 34.281 21.8111 34.281 21.852C34.281 21.9133 37.4289 22.8849 37.7434 22.9156C37.9467 22.936 40.7999 20.6145 40.6983 20.5225C40.6373 20.4714 39.1855 20.0112 37.3169 19.4487C37.2156 19.418 36.6165 19.8476 35.7127 20.5941Z" fill="white"/>
<path d="M6.76346 20.8906C6.76346 20.9111 7.34223 21.1565 8.06315 21.4327C9.91121 22.1588 13.6276 23.3655 16.4606 24.1632C19.253 24.9404 19.192 24.92 19.1413 24.9711C19.121 24.9915 18.1868 25.6972 17.0698 26.546C13.9322 28.9186 9.19029 32.9274 9.34259 33.0808C9.48474 33.224 14.8461 30.064 18.004 27.9675C20.2582 26.4744 23.4568 24.2348 23.4974 24.1223C23.5177 24.0507 18.9788 22.9462 16.2271 22.3735C14.2369 21.9542 10.3478 21.2895 8.74349 21.0952C8.02254 21.0134 7.27116 20.9213 7.09853 20.8906C6.91577 20.8702 6.76346 20.8702 6.76346 20.8906Z" fill="white"/>
<path d="M40.5257 22.578L39.5611 23.3757L40.597 23.703C41.1758 23.8768 41.7139 24.0404 41.8052 24.0711C41.9068 24.1018 42.323 23.8155 42.9018 23.3348C43.4096 22.9155 43.8257 22.5474 43.8257 22.5269C43.8257 22.5065 43.3586 22.3428 42.7902 22.169C42.2114 21.9951 41.6936 21.8315 41.6223 21.811C41.5513 21.7906 41.0638 22.1281 40.5257 22.578Z" fill="white"/>
<path d="M6.12375 24.4597C5.62621 24.8791 5.22003 25.2472 5.22003 25.2983C5.2302 25.3392 5.7379 25.5336 6.35729 25.7176L7.49455 26.0654L8.20534 25.4722C8.60136 25.145 9.03799 24.7768 9.18013 24.6643C9.42384 24.4597 9.43397 24.4393 9.2512 24.3882C8.91614 24.2859 7.23055 23.7848 7.11886 23.7439C7.06808 23.7235 6.61116 24.0507 6.12375 24.4597Z" fill="white"/>
<path d="M25.2439 24.8279C25.2439 25.1756 27.3762 31.9968 28.3409 34.6966C29.1024 36.8544 30.7677 40.986 30.8692 40.986C30.9301 40.986 30.5138 38.4704 30.1686 36.742C29.7726 34.758 29.0922 31.8434 28.5033 29.614L28.1073 28.1107L28.4322 28.2436C28.6049 28.3152 29.5492 28.7243 30.5342 29.1538C33.5499 30.4526 38.6777 32.3547 39.9166 32.6411C40.8202 32.8456 35.3573 29.6754 31.2348 27.5891C29.6812 26.8017 25.3556 24.7256 25.2743 24.7256C25.2642 24.7256 25.2439 24.7666 25.2439 24.8279Z" fill="white"/>
<path d="M9.6269 26.0858L8.16473 27.3232L9.93155 27.8653C10.8962 28.1618 11.7389 28.4073 11.7897 28.397C11.8507 28.397 12.5411 27.855 13.3433 27.1801L14.7852 25.9733L14.4603 25.8608C13.9627 25.7074 11.4039 24.9302 11.2312 24.8791C11.15 24.8586 10.4393 25.3904 9.6269 26.0858Z" fill="white"/>
<path d="M22.421 26.7607C19.3545 30.0333 17.0089 32.7331 14.8563 35.4841C13.6479 37.0282 13.0082 37.918 13.0996 37.918C13.191 37.918 15.5264 35.9545 16.8668 34.758C17.5877 34.1035 19.2225 32.5695 20.4917 31.3423C22.6546 29.2561 22.8069 29.1333 22.8069 29.4197C22.8069 30.606 23.8629 37.6316 24.4519 40.3521C24.7158 41.5689 24.787 41.7939 24.8682 41.5894C24.9799 41.2825 24.8885 33.1115 24.7463 31.1173C24.5128 27.8857 24.3097 25.4722 24.2386 25.1961C24.1675 24.9097 24.1371 24.9404 22.421 26.7607Z" fill="white"/>
<path d="M2.31597 27.5584C1.38179 28.3357 0.914704 28.7857 0.995937 28.8265C1.06701 28.8674 1.83873 29.1129 2.70182 29.3788C3.56492 29.6345 4.32647 29.8697 4.38738 29.8901C4.49911 29.9208 7.29146 27.6709 7.3524 27.4971C7.37269 27.4357 4.02185 26.3517 3.81877 26.3619C3.78831 26.3619 3.11814 26.9039 2.31597 27.5584Z" fill="white"/>
<path d="M7.06808 29.4401C6.59083 29.839 6.19482 30.1969 6.17453 30.2378C6.1542 30.3094 8.20534 30.9639 8.43888 30.9639C8.55057 30.9639 10.2463 29.5731 10.2971 29.4504C10.3174 29.3686 8.30687 28.7141 8.06316 28.7141C7.99209 28.7243 7.54533 29.0515 7.06808 29.4401Z" fill="white"/>
<path d="M31.1637 31.5877C31.1942 31.7207 31.3871 32.5695 31.6003 33.4797L31.976 35.1262L33.6718 35.75C34.5958 36.0977 35.4081 36.384 35.4589 36.384C35.5807 36.384 34.7786 32.8558 34.6263 32.7127C34.5755 32.6615 33.8546 32.3752 33.0117 32.0582C32.1791 31.7514 31.3972 31.4548 31.2957 31.4139C31.1332 31.3525 31.1129 31.373 31.1637 31.5877Z" fill="white"/>
<path d="M19.9231 34.7887L18.6133 36.0568L18.9077 37.867C19.0702 38.8693 19.253 39.7077 19.3037 39.7178C19.3647 39.7382 19.9942 39.1758 20.7253 38.4804L22.0454 37.2126L21.7407 35.4023C21.5681 34.4 21.3955 33.5717 21.3346 33.5615C21.2838 33.541 20.6441 34.1035 19.9231 34.7887Z" fill="white"/>
<path d="M36.3118 33.6433C36.3118 33.8069 36.7892 35.8829 36.8398 35.9136C36.9211 35.975 39.1043 36.7726 39.1346 36.7522C39.1549 36.7215 38.6371 34.4103 38.5964 34.3592C38.5661 34.3183 36.9008 33.6842 36.5452 33.5819C36.383 33.5308 36.3118 33.5512 36.3118 33.6433Z" fill="white"/>
<path d="M32.5548 36.9872C32.565 37.2841 33.0321 39.1553 33.1234 39.2473C33.2453 39.3598 35.2964 40.0962 35.3472 40.0556C35.3675 40.0247 35.2659 39.4827 35.1136 38.8384L34.8395 37.6726L33.6921 37.2431C32.7477 36.8952 32.5548 36.8442 32.5548 36.9872Z" fill="white"/>
<path d="M36.1087 37.1511C36.1087 37.3452 36.9008 40.6895 36.9617 40.751C37.0837 40.8735 40.4241 42.0702 40.4547 41.9984C40.485 41.9268 39.693 38.419 39.622 38.3579C39.6121 38.3374 38.8097 38.0305 37.8554 37.6726C36.6975 37.2431 36.1087 37.0692 36.1087 37.1511Z" fill="white"/>
<path d="M16.4707 38.2249L15.5873 39.0943L15.7498 40.1167C15.9935 41.6508 15.9224 41.6199 16.948 40.6485L17.8517 39.8101L17.6791 38.7873C17.4252 37.1921 17.4963 37.2327 16.4707 38.2249Z" fill="white"/>
<path d="M21.2432 39.8101L20.3394 40.6485L20.5222 41.8143C20.6238 42.4587 20.7253 43.0111 20.7659 43.0517C20.7964 43.0926 21.2229 42.7347 21.7102 42.2542L22.5937 41.395L22.3906 40.1986C22.2789 39.5338 22.1773 38.9918 22.1672 38.9818C22.157 38.9713 21.7407 39.3397 21.2432 39.8101Z" fill="white"/>
<path d="M17.7705 41.7123C17.1104 42.3358 16.4809 42.9291 16.3895 43.0211C16.2169 43.1746 16.2271 43.2871 16.5317 45.0563C16.7043 46.0791 16.8769 46.9175 16.9074 46.9175C16.9378 46.9175 17.5775 46.3245 18.3188 45.6086L19.6693 44.3099L19.3545 42.4688C19.1819 41.4564 19.0296 40.618 19.0092 40.6076C18.9991 40.5871 18.4406 41.0884 17.7705 41.7123Z" fill="white"/>
</svg>
